<svg width="107" height="137" viewBox="0 0 107 137" fill="none" xmlns="http://www.w3.org/2000/svg">
<path d="M53.1828 34.8439C82.5548 34.8439 106.366 27.0438 106.366 17.422C106.366 7.80007 82.5548 0 53.1828 0C23.8107 0 0 7.80007 0 17.422C0 27.0438 23.8107 34.8439 53.1828 34.8439Z" fill="#424242"/>
<path d="M0.00379877 30.6586L0 17.6378V59.0078C7.61862 62.9418 18.3041 65.5843 30.1466 67.0339L35.3796 81.6816C19.097 80.0918 6.05027 76.3835 0 71.6681V90.184C12.3694 96.5711 32.823 99.5539 53.187 99.5539C73.5477 99.5539 93.9945 96.571 106.366 90.1892V71.6705C100.313 76.3851 87.267 80.0928 70.9866 81.6821L76.2195 67.0346C88.0606 65.5856 98.7452 62.9442 106.366 59.0132V30.6804C106.332 37.9768 90.615 44.1688 69.0245 46.2408L53.1828 89.0048L37.3409 46.2403C15.7295 44.1659 0.00379877 37.9645 0.00379877 30.6586Z" fill="#424242"/>
<path d="M106.366 102.847C98.2304 109.183 77.4627 113.701 53.1871 113.701C28.9058 113.701 8.13263 109.183 0 102.844V118.34H0.00316295L0.00379877 120.519C0.00379877 129.518 23.8601 136.841 53.1866 136.841C82.4865 136.841 106.324 129.529 106.366 120.541V120.501C106.365 120.42 106.365 120.134 106.365 119.696V119.686C106.366 119.327 106.366 118.868 106.366 118.34V102.847Z" fill="#424242"/>
</svg>
